# Exported from ProBuilder
# http://www.procore3d.com/probuilder
# 8/21/2018 11:48:54 AM

mtllib ./Cone5.mtl
o Cone5

g Cone
v 0 0 0.55
v 0.0690983 0.09510567 0.55
v 0.1 -1.192093E-07 -0.4500001
v 0 0 0.55
v 0.0690983 0.09510567 0.55
v 0.1 0 0.55
v 0.0690983 0.09510567 0.55
v 0.1809017 0.05877853 0.55
v 0.1 -1.192093E-07 -0.4500001
v 0.0690983 0.09510567 0.55
v 0.1809017 0.05877853 0.55
v 0.1 0 0.55
v 0.1809017 0.05877853 0.55
v 0.1809017 -0.05877852 0.55
v 0.1 -1.192093E-07 -0.4500001
v 0.1809017 0.05877853 0.55
v 0.1809017 -0.05877852 0.55
v 0.1 0 0.55
v 0.1809017 -0.05877852 0.55
v 0.06909829 -0.09510566 0.55
v 0.1 -1.192093E-07 -0.4500001
v 0.1809017 -0.05877852 0.55
v 0.06909829 -0.09510566 0.55
v 0.1 0 0.55
v 0.06909829 -0.09510566 0.55
v 0 0 0.55
v 0.1 -1.192093E-07 -0.4500001
v 0.06909829 -0.09510566 0.55
v 0 0 0.55
v 0.1 0 0.55

vn -0.8063824 0.585871 -0.0806383
vn -0.8063824 0.585871 -0.0806383
vn -0.8063824 0.585871 -0.0806383
vn 0 0 1
vn 0 0 1
vn 0 0 1
vn 0.3080108 0.9479593 -0.08063836
vn 0.3080108 0.9479593 -0.08063836
vn 0.3080108 0.9479593 -0.08063836
vn 0 0 1
vn 0 0 1
vn 0 0 1
vn 0.9967434 0 -0.08063823
vn 0.9967434 0 -0.08063823
vn 0.9967434 0 -0.08063823
vn 0 0 1
vn 0 0 1
vn 0 0 1
vn 0.3080108 -0.9479593 -0.08063813
vn 0.3080108 -0.9479593 -0.08063813
vn 0.3080108 -0.9479593 -0.08063813
vn 0 0 1
vn 0 0 1
vn 0 0 1
vn -0.8063825 -0.5858709 -0.08063816
vn -0.8063825 -0.5858709 -0.08063816
vn -0.8063825 -0.5858709 -0.08063816
vn 0 0 1
vn 0 0 1
vn 0 0 1

vt 0 0
vt 0.1175571 2.253234E-10
vt 0.05877852 1.003267
vt 0 0
vt 0.0690983 0.09510566
vt 0.1 0
vt 0.03632712 -0.00901563
vt 0.1538842 -0.00901563
vt 0.09510565 0.9942516
vt 0.0690983 0.09510566
vt 0.1809017 0.05877852
vt 0.1 0
vt -0.05877852 -0.0145876
vt 0.05877851 -0.0145876
vt 0 0.9886796
vt 0.1809017 0.05877852
vt 0.1809017 -0.05877851
vt 0.1 0
vt -0.1538842 -0.009015625
vt -0.03632711 -0.009015626
vt -0.09510565 0.9942516
vt 0.1809017 -0.05877851
vt 0.06909829 -0.09510565
vt 0.1 0
vt -0.117557 3.149404E-10
vt 0 0
vt -0.05877852 1.003267
vt 0.06909829 -0.09510565
vt 0 0
vt 0.1 0

g Cone
usemtl Default_Prototype
f 1/1/1 2/2/2 3/3/3
f 6/6/6 5/5/5 4/4/4
f 7/7/7 8/8/8 9/9/9
f 12/12/12 11/11/11 10/10/10
f 13/13/13 14/14/14 15/15/15
f 18/18/18 17/17/17 16/16/16
f 19/19/19 20/20/20 21/21/21
f 24/24/24 23/23/23 22/22/22
f 25/25/25 26/26/26 27/27/27
f 30/30/30 29/29/29 28/28/28

