# Exported from ProBuilder
# http://www.procore3d.com/probuilder
# 8/22/2018 8:37:37 AM

mtllib ./WeirdCube3.mtl
o WeirdCube3

g Cube
v 0 0 0
v -1 0 0
v 0 1 0
v -1 1 0
v -1 0 0
v -1 0 -1
v -1 1 0
v -1 1 -1
v -1 0 -1
v 0 0 -1
v -1 1 -1
v 0 1 -1
v 0 0 -1
v 0 0 0
v 0 1 -1
v 0 1 0
v 0 2 0
v -1 2 0
v 0 2 -1
v -1 2 -1
v 0 0 -1
v -1 0 -1
v 0 0 0
v -1 0 0
v 0 1 1
v -1 1 1
v 0 2 1
v -1 2 1
v 1 1 -1
v 1 1 0
v 1 2 -1
v 1 2 0
v -3 1 0
v -3 1 -1
v -3 2 0
v -3 2 -1
v -1 1 -4
v 0 1 -4
v -1 2 -4
v 0 2 -4
v -1 1 -1
v 0 1 -1
v -1 1 -2
v 0 1 -2
v -1 2 -1
v -1 1 -1
v -1 2 -2
v -1 1 -2
v 0 1 -1
v 0 2 -1
v 0 1 -2
v 0 2 -2
v 0 4 -1
v -1 4 -1
v 0 4 -2
v -1 4 -2
v -1 1 -2
v 0 1 -2
v -1 1 -3
v 0 1 -3
v -1 2 -2
v -1 1 -2
v -1 2 -3
v -1 1 -3
v 2 1 -2
v 2 2 -2
v 2 1 -3
v 2 2 -3
v 0 2 -2
v -1 2 -2
v 0 2 -3
v -1 2 -3
v -1 1 -3
v 0 1 -3
v -1 1 -4
v 0 1 -4
v -3 2 -3
v -3 1 -3
v -3 2 -4
v -3 1 -4
v 0 1 -3
v 0 2 -3
v 0 1 -4
v 0 2 -4
v 0 2 -3
v -1 2 -3
v 0 2 -4
v -1 2 -4
v 0 1 -2
v 0 2 -2
v 1 1 -2
v 1 2 -2
v 0 -1 -3
v 0 -1 -2
v 1 -1 -3
v 1 -1 -2
v 0 2 -2
v 0 2 -3
v 1 2 -2
v 1 2 -3
v 0 2 -3
v 0 1 -3
v 1 2 -3
v 1 1 -3
v 1 1 -2
v 1 2 -2
v 2 1 -2
v 2 2 -2
v 1 1 -3
v 1 1 -2
v 2 1 -3
v 2 1 -2
v 1 2 -2
v 1 2 -3
v 2 2 -2
v 2 2 -3
v 1 2 -3
v 1 1 -3
v 2 2 -3
v 2 1 -3
v 0 2 -1
v -1 2 -1
v 0 3 -1
v -1 3 -1
v 0 2 -2
v 0 2 -1
v 0 3 -2
v 0 3 -1
v -1 2 -1
v -1 2 -2
v -1 3 -1
v -1 3 -2
v -1 2 -2
v 0 2 -2
v -1 3 -2
v 0 3 -2
v 0 3 -1
v -1 3 -1
v 0 4 -1
v -1 4 -1
v 2 3 -2
v 2 3 -1
v 2 4 -2
v 2 4 -1
v -1 3 -1
v -1 3 -2
v -1 4 -1
v -1 4 -2
v -1 3 -2
v 0 3 -2
v -1 4 -2
v 0 4 -2
v -1 1 0
v -1 1 -1
v -2 1 0
v -2 1 -1
v -1 2 0
v -1 1 0
v -2 2 0
v -2 1 0
v -1 1 -1
v -1 2 -1
v -2 1 -1
v -2 2 -1
v -1 2 -1
v -1 2 0
v -2 2 -1
v -2 2 0
v -2 1 0
v -2 1 -1
v -3 1 0
v -3 1 -1
v -2 2 0
v -2 1 0
v -3 2 0
v -3 1 0
v -2 1 -1
v -2 2 -1
v -3 1 -1
v -3 2 -1
v -2 3 -1
v -2 3 0
v -3 3 -1
v -3 3 0
v -1 2 -3
v -1 1 -3
v -2 2 -3
v -2 1 -3
v -1 3 -4
v -1 3 -3
v -2 3 -4
v -2 3 -3
v -1 1 -3
v -1 1 -4
v -2 1 -3
v -2 1 -4
v -1 1 -5
v -1 2 -5
v -2 1 -5
v -2 2 -5
v -2 2 -3
v -2 1 -3
v -3 2 -3
v -3 1 -3
v -2 2 -4
v -2 2 -3
v -3 2 -4
v -3 2 -3
v -2 1 -3
v -2 1 -4
v -3 1 -3
v -3 1 -4
v -2 1 -4
v -2 2 -4
v -3 1 -4
v -3 2 -4
v -1 1 -4
v -1 2 -4
v -1 1 -5
v -1 2 -5
v -2 1 -4
v -1 1 -4
v -2 1 -5
v -1 1 -5
v -1 2 -4
v -2 2 -4
v -1 2 -5
v -2 2 -5
v -2 2 -4
v -2 1 -4
v -2 2 -5
v -2 1 -5
v -1 2 -4
v -1 2 -3
v -1 3 -4
v -1 3 -3
v -2 2 -4
v -1 2 -4
v -2 3 -4
v -1 3 -4
v -1 2 -3
v -2 2 -3
v -1 3 -3
v -2 3 -3
v -2 2 -3
v -2 2 -4
v -2 3 -3
v -2 3 -4
v 0 1 -3
v 0 1 -2
v 0 0 -3
v 0 0 -2
v 1 1 -3
v 0 1 -3
v 1 0 -3
v 0 0 -3
v 0 1 -2
v 1 1 -2
v 0 0 -2
v 1 0 -2
v 1 1 -2
v 1 1 -3
v 1 0 -2
v 1 0 -3
v -2 0 -3
v -2 0 -2
v -2 -1 -3
v -2 -1 -2
v 1 0 -3
v 0 0 -3
v 1 -1 -3
v 0 -1 -3
v 0 0 -1
v 1 0 -1
v 0 -1 -1
v 1 -1 -1
v 2 0 -2
v 2 0 -3
v 2 -1 -2
v 2 -1 -3
v 0 0 -3
v 0 0 -2
v -1 0 -3
v -1 0 -2
v 0 -1 -4
v 0 0 -4
v -1 -1 -4
v -1 0 -4
v 0 0 -2
v 0 -1 -2
v -1 0 -2
v -1 -1 -2
v 0 -1 -2
v 0 -1 -3
v -1 -1 -2
v -1 -1 -3
v -1 0 -3
v -1 0 -2
v -2 0 -3
v -2 0 -2
v -1 -1 -3
v -1 0 -3
v -2 -1 -3
v -2 0 -3
v -1 0 -2
v -1 -1 -2
v -2 0 -2
v -2 -1 -2
v -1 -3 -2
v -1 -3 -3
v -2 -3 -2
v -2 -3 -3
v 0 -1 -3
v 0 0 -3
v 0 -1 -4
v 0 0 -4
v -1 -1 -3
v 0 -1 -3
v -1 -1 -4
v 0 -1 -4
v 0 0 -3
v -1 0 -3
v 0 0 -4
v -1 0 -4
v -1 0 -3
v -1 -1 -3
v -1 0 -4
v -1 -1 -4
v -1 -1 -2
v -1 -1 -3
v -1 -2 -2
v -1 -2 -3
v -2 -1 0
v -1 -1 0
v -2 -2 0
v -1 -2 0
v -1 -1 -3
v -2 -1 -3
v -1 -2 -3
v -2 -2 -3
v -2 -1 -3
v -2 -1 -2
v -2 -2 -3
v -2 -2 -2
v -1 -2 -2
v -1 -2 -3
v -1 -3 -2
v -1 -3 -3
v -2 -2 -2
v -1 -2 -2
v -2 -3 -2
v -1 -3 -2
v -1 -2 -3
v -2 -2 -3
v -1 -3 -3
v -2 -3 -3
v -4 -2 -3
v -4 -2 -2
v -4 -3 -3
v -4 -3 -2
v -2 -2 -3
v -2 -2 -2
v -3 -2 -3
v -3 -2 -2
v -2 -3 -4
v -2 -2 -4
v -3 -3 -4
v -3 -2 -4
v -2 -2 -1
v -2 -3 -1
v -3 -2 -1
v -3 -3 -1
v -2 -3 -2
v -2 -3 -3
v -3 -3 -2
v -3 -3 -3
v -3 -2 -3
v -3 -2 -2
v -4 -2 -3
v -4 -2 -2
v -3 -3 -3
v -3 -2 -3
v -4 -3 -3
v -4 -2 -3
v -3 -2 -2
v -3 -3 -2
v -4 -2 -2
v -4 -3 -2
v -3 -4 -2
v -3 -4 -3
v -4 -4 -2
v -4 -4 -3
v -2 -3 -3
v -2 -2 -3
v -2 -3 -4
v -2 -2 -4
v -3 -3 -3
v -2 -3 -3
v -3 -3 -4
v -2 -3 -4
v -2 -2 -3
v -3 -2 -3
v -2 -2 -4
v -3 -2 -4
v -3 -2 -3
v -3 -3 -3
v -3 -2 -4
v -3 -3 -4
v -3 -3 -2
v -3 -3 -3
v -3 -4 -2
v -3 -4 -3
v -4 -3 -2
v -3 -3 -2
v -4 -4 -2
v -3 -4 -2
v -3 -3 -3
v -4 -3 -3
v -3 -4 -3
v -4 -4 -3
v -4 -3 -3
v -4 -3 -2
v -4 -4 -3
v -4 -4 -2
v -2 -1 -2
v -1 -1 -2
v -2 -1 -1
v -1 -1 -1
v -2 -2 -2
v -2 -1 -2
v -2 -2 -1
v -2 -1 -1
v -1 -1 -2
v -1 -2 -2
v -1 -1 -1
v -1 -2 -1
v -1 -2 -2
v -2 -2 -2
v -1 -2 -1
v -2 -2 -1
v -2 -1 -1
v -1 -1 -1
v -2 -1 0
v -1 -1 0
v -2 -2 -1
v -2 -1 -1
v -2 -2 0
v -2 -1 0
v -1 -1 -1
v -1 -2 -1
v -1 -1 0
v -1 -2 0
v -1 -2 -1
v -2 -2 -1
v -1 -2 0
v -2 -2 0
v -2 -2 -2
v -2 -3 -2
v -2 -2 -1
v -2 -3 -1
v -3 -2 -2
v -2 -2 -2
v -3 -2 -1
v -2 -2 -1
v -2 -3 -2
v -3 -3 -2
v -2 -3 -1
v -3 -3 -1
v -3 -3 -2
v -3 -2 -2
v -3 -3 -1
v -3 -2 -1
v 0 1 0
v -1 1 0
v 0 1 1
v -1 1 1
v 0 2 0
v 0 1 0
v 0 2 1
v 0 1 1
v -1 1 0
v -1 2 0
v -1 1 1
v -1 2 1
v -1 2 0
v 0 2 0
v -1 2 1
v 0 2 1
v 0 1 -1
v 0 1 0
v 1 1 -1
v 1 1 0
v 0 2 -1
v 0 1 -1
v 1 2 -1
v 1 1 -1
v 0 1 0
v 0 2 0
v 1 1 0
v 1 2 0
v 0 2 0
v 0 2 -1
v 1 2 0
v 1 2 -1
v 0 3 -2
v 0 3 -1
v 1 3 -2
v 1 3 -1
v 0 4 -3
v 0 3 -3
v 1 4 -3
v 1 3 -3
v 0 3 0
v 0 4 0
v 1 3 0
v 1 4 0
v 0 5 -1
v 0 5 -2
v 1 5 -1
v 1 5 -2
v 1 0 -2
v 1 0 -3
v 2 0 -2
v 2 0 -3
v 1 -1 -2
v 1 0 -2
v 2 -1 -2
v 2 0 -2
v 1 0 -3
v 1 -1 -3
v 2 0 -3
v 2 -1 -3
v 1 -1 -3
v 1 -1 -2
v 2 -1 -3
v 2 -1 -2
v 0 0 -2
v 1 0 -2
v 0 0 -1
v 1 0 -1
v 0 -1 -2
v 0 0 -2
v 0 -1 -1
v 0 0 -1
v 1 0 -2
v 1 -1 -2
v 1 0 -1
v 1 -1 -1
v 1 -1 -2
v 0 -1 -2
v 1 -1 -1
v 0 -1 -1
v -2 2 -1
v -2 2 0
v -2 3 -1
v -2 3 0
v -3 2 -1
v -2 2 -1
v -3 3 -1
v -2 3 -1
v -2 2 0
v -3 2 0
v -2 3 0
v -3 3 0
v -3 2 0
v -3 2 -1
v -3 3 0
v -3 3 -1
v 0 3 -1
v 0 4 -1
v 0 3 0
v 0 4 0
v 1 3 -1
v 0 3 -1
v 1 3 0
v 0 3 0
v 0 4 -1
v 1 4 -1
v 0 4 0
v 1 4 0
v 1 4 -1
v 1 3 -1
v 1 4 0
v 1 3 0
v 0 4 -1
v 0 4 -2
v 0 5 -1
v 0 5 -2
v 1 4 -1
v 0 4 -1
v 1 5 -1
v 0 5 -1
v 0 4 -2
v 1 4 -2
v 0 5 -2
v 1 5 -2
v 1 4 -2
v 1 4 -1
v 1 5 -2
v 1 5 -1
v 0 4 -2
v 0 3 -2
v 0 4 -3
v 0 3 -3
v 1 4 -2
v 0 4 -2
v 1 4 -3
v 0 4 -3
v 0 3 -2
v 1 3 -2
v 0 3 -3
v 1 3 -3
v 1 3 -2
v 1 4 -2
v 1 3 -3
v 1 4 -3
v 1 3 -2
v 1 3 -1
v 2 3 -2
v 2 3 -1
v 1 4 -2
v 1 3 -2
v 2 4 -2
v 2 3 -2
v 1 3 -1
v 1 4 -1
v 2 3 -1
v 2 4 -1
v 1 4 -1
v 1 4 -2
v 2 4 -1
v 2 4 -2

vn 0 0 1
vn 0 0 1
vn 0 0 1
vn 0 0 1
vn -1 0 0
vn -1 0 0
vn -1 0 0
vn -1 0 0
vn 0 0 -1
vn 0 0 -1
vn 0 0 -1
vn 0 0 -1
vn 1 0 0
vn 1 0 0
vn 1 0 0
vn 1 0 0
vn 0 1 0
vn 0 1 0
vn 0 1 0
vn 0 1 0
vn 0 -1 0
vn 0 -1 0
vn 0 -1 0
vn 0 -1 0
vn 0 0 1
vn 0 0 1
vn 0 0 1
vn 0 0 1
vn 1 0 0
vn 1 0 0
vn 1 0 0
vn 1 0 0
vn -1 0 0
vn -1 0 0
vn -1 0 0
vn -1 0 0
vn 0 0 -1
vn 0 0 -1
vn 0 0 -1
vn 0 0 -1
vn 0 -1 0
vn 0 -1 0
vn 0 -1 0
vn 0 -1 0
vn -1 0 0
vn -1 0 0
vn -1 0 0
vn -1 0 0
vn 1 0 0
vn 1 0 0
vn 1 0 0
vn 1 0 0
vn 0 1 0
vn 0 1 0
vn 0 1 0
vn 0 1 0
vn 0 -1 0
vn 0 -1 0
vn 0 -1 0
vn 0 -1 0
vn -1 0 0
vn -1 0 0
vn -1 0 0
vn -1 0 0
vn 1 0 0
vn 1 0 0
vn 1 0 0
vn 1 0 0
vn 0 1 0
vn 0 1 0
vn 0 1 0
vn 0 1 0
vn 0 -1 0
vn 0 -1 0
vn 0 -1 0
vn 0 -1 0
vn -1 0 0
vn -1 0 0
vn -1 0 0
vn -1 0 0
vn 1 0 0
vn 1 0 0
vn 1 0 0
vn 1 0 0
vn 0 1 0
vn 0 1 0
vn 0 1 0
vn 0 1 0
vn 0 0 1
vn 0 0 1
vn 0 0 1
vn 0 0 1
vn 0 -1 0
vn 0 -1 0
vn 0 -1 0
vn 0 -1 0
vn 0 1 0
vn 0 1 0
vn 0 1 0
vn 0 1 0
vn 0 0 -1
vn 0 0 -1
vn 0 0 -1
vn 0 0 -1
vn 0 0 1
vn 0 0 1
vn 0 0 1
vn 0 0 1
vn 0 -1 0
vn 0 -1 0
vn 0 -1 0
vn 0 -1 0
vn 0 1 0
vn 0 1 0
vn 0 1 0
vn 0 1 0
vn 0 0 -1
vn 0 0 -1
vn 0 0 -1
vn 0 0 -1
vn 0 0 1
vn 0 0 1
vn 0 0 1
vn 0 0 1
vn 1 0 0
vn 1 0 0
vn 1 0 0
vn 1 0 0
vn -1 0 0
vn -1 0 0
vn -1 0 0
vn -1 0 0
vn 0 0 -1
vn 0 0 -1
vn 0 0 -1
vn 0 0 -1
vn 0 0 1
vn 0 0 1
vn 0 0 1
vn 0 0 1
vn 1 0 0
vn 1 0 0
vn 1 0 0
vn 1 0 0
vn -1 0 0
vn -1 0 0
vn -1 0 0
vn -1 0 0
vn 0 0 -1
vn 0 0 -1
vn 0 0 -1
vn 0 0 -1
vn 0 -1 0
vn 0 -1 0
vn 0 -1 0
vn 0 -1 0
vn 0 0 1
vn 0 0 1
vn 0 0 1
vn 0 0 1
vn 0 0 -1
vn 0 0 -1
vn 0 0 -1
vn 0 0 -1
vn 0 1 0
vn 0 1 0
vn 0 1 0
vn 0 1 0
vn 0 -1 0
vn 0 -1 0
vn 0 -1 0
vn 0 -1 0
vn 0 0 1
vn 0 0 1
vn 0 0 1
vn 0 0 1
vn 0 0 -1
vn 0 0 -1
vn 0 0 -1
vn 0 0 -1
vn 0 1 0
vn 0 1 0
vn 0 1 0
vn 0 1 0
vn 0 0 1
vn 0 0 1
vn 0 0 1
vn 0 0 1
vn 0 1 0
vn 0 1 0
vn 0 1 0
vn 0 1 0
vn 0 -1 0
vn 0 -1 0
vn 0 -1 0
vn 0 -1 0
vn 0 0 -1
vn 0 0 -1
vn 0 0 -1
vn 0 0 -1
vn 0 0 1
vn 0 0 1
vn 0 0 1
vn 0 0 1
vn 0 1 0
vn 0 1 0
vn 0 1 0
vn 0 1 0
vn 0 -1 0
vn 0 -1 0
vn 0 -1 0
vn 0 -1 0
vn 0 0 -1
vn 0 0 -1
vn 0 0 -1
vn 0 0 -1
vn 1 0 0
vn 1 0 0
vn 1 0 0
vn 1 0 0
vn 0 -1 0
vn 0 -1 0
vn 0 -1 0
vn 0 -1 0
vn 0 1 0
vn 0 1 0
vn 0 1 0
vn 0 1 0
vn -1 0 0
vn -1 0 0
vn -1 0 0
vn -1 0 0
vn 1 0 0
vn 1 0 0
vn 1 0 0
vn 1 0 0
vn 0 0 -1
vn 0 0 -1
vn 0 0 -1
vn 0 0 -1
vn 0 0 1
vn 0 0 1
vn 0 0 1
vn 0 0 1
vn -1 0 0
vn -1 0 0
vn -1 0 0
vn -1 0 0
vn -1 0 0
vn -1 0 0
vn -1 0 0
vn -1 0 0
vn 0 0 -1
vn 0 0 -1
vn 0 0 -1
vn 0 0 -1
vn 0 0 1
vn 0 0 1
vn 0 0 1
vn 0 0 1
vn 1 0 0
vn 1 0 0
vn 1 0 0
vn 1 0 0
vn -1 0 0
vn -1 0 0
vn -1 0 0
vn -1 0 0
vn 0 0 -1
vn 0 0 -1
vn 0 0 -1
vn 0 0 -1
vn 0 0 1
vn 0 0 1
vn 0 0 1
vn 0 0 1
vn 1 0 0
vn 1 0 0
vn 1 0 0
vn 1 0 0
vn 0 1 0
vn 0 1 0
vn 0 1 0
vn 0 1 0
vn 0 0 -1
vn 0 0 -1
vn 0 0 -1
vn 0 0 -1
vn 0 0 1
vn 0 0 1
vn 0 0 1
vn 0 0 1
vn 0 -1 0
vn 0 -1 0
vn 0 -1 0
vn 0 -1 0
vn 0 1 0
vn 0 1 0
vn 0 1 0
vn 0 1 0
vn 0 0 -1
vn 0 0 -1
vn 0 0 -1
vn 0 0 -1
vn 0 0 1
vn 0 0 1
vn 0 0 1
vn 0 0 1
vn 0 -1 0
vn 0 -1 0
vn 0 -1 0
vn 0 -1 0
vn 1 0 0
vn 1 0 0
vn 1 0 0
vn 1 0 0
vn 0 -1 0
vn 0 -1 0
vn 0 -1 0
vn 0 -1 0
vn 0 1 0
vn 0 1 0
vn 0 1 0
vn 0 1 0
vn -1 0 0
vn -1 0 0
vn -1 0 0
vn -1 0 0
vn 1 0 0
vn 1 0 0
vn 1 0 0
vn 1 0 0
vn 0 0 1
vn 0 0 1
vn 0 0 1
vn 0 0 1
vn 0 0 -1
vn 0 0 -1
vn 0 0 -1
vn 0 0 -1
vn -1 0 0
vn -1 0 0
vn -1 0 0
vn -1 0 0
vn 1 0 0
vn 1 0 0
vn 1 0 0
vn 1 0 0
vn 0 0 1
vn 0 0 1
vn 0 0 1
vn 0 0 1
vn 0 0 -1
vn 0 0 -1
vn 0 0 -1
vn 0 0 -1
vn -1 0 0
vn -1 0 0
vn -1 0 0
vn -1 0 0
vn 0 1 0
vn 0 1 0
vn 0 1 0
vn 0 1 0
vn 0 0 -1
vn 0 0 -1
vn 0 0 -1
vn 0 0 -1
vn 0 0 1
vn 0 0 1
vn 0 0 1
vn 0 0 1
vn 0 -1 0
vn 0 -1 0
vn 0 -1 0
vn 0 -1 0
vn 0 1 0
vn 0 1 0
vn 0 1 0
vn 0 1 0
vn 0 0 -1
vn 0 0 -1
vn 0 0 -1
vn 0 0 -1
vn 0 0 1
vn 0 0 1
vn 0 0 1
vn 0 0 1
vn 0 -1 0
vn 0 -1 0
vn 0 -1 0
vn 0 -1 0
vn 1 0 0
vn 1 0 0
vn 1 0 0
vn 1 0 0
vn 0 -1 0
vn 0 -1 0
vn 0 -1 0
vn 0 -1 0
vn 0 1 0
vn 0 1 0
vn 0 1 0
vn 0 1 0
vn -1 0 0
vn -1 0 0
vn -1 0 0
vn -1 0 0
vn 1 0 0
vn 1 0 0
vn 1 0 0
vn 1 0 0
vn 0 0 1
vn 0 0 1
vn 0 0 1
vn 0 0 1
vn 0 0 -1
vn 0 0 -1
vn 0 0 -1
vn 0 0 -1
vn -1 0 0
vn -1 0 0
vn -1 0 0
vn -1 0 0
vn 0 1 0
vn 0 1 0
vn 0 1 0
vn 0 1 0
vn -1 0 0
vn -1 0 0
vn -1 0 0
vn -1 0 0
vn 1 0 0
vn 1 0 0
vn 1 0 0
vn 1 0 0
vn 0 -1 0
vn 0 -1 0
vn 0 -1 0
vn 0 -1 0
vn 0 1 0
vn 0 1 0
vn 0 1 0
vn 0 1 0
vn -1 0 0
vn -1 0 0
vn -1 0 0
vn -1 0 0
vn 1 0 0
vn 1 0 0
vn 1 0 0
vn 1 0 0
vn 0 -1 0
vn 0 -1 0
vn 0 -1 0
vn 0 -1 0
vn 1 0 0
vn 1 0 0
vn 1 0 0
vn 1 0 0
vn 0 1 0
vn 0 1 0
vn 0 1 0
vn 0 1 0
vn 0 -1 0
vn 0 -1 0
vn 0 -1 0
vn 0 -1 0
vn -1 0 0
vn -1 0 0
vn -1 0 0
vn -1 0 0
vn 0 -1 0
vn 0 -1 0
vn 0 -1 0
vn 0 -1 0
vn 1 0 0
vn 1 0 0
vn 1 0 0
vn 1 0 0
vn -1 0 0
vn -1 0 0
vn -1 0 0
vn -1 0 0
vn 0 1 0
vn 0 1 0
vn 0 1 0
vn 0 1 0
vn 0 -1 0
vn 0 -1 0
vn 0 -1 0
vn 0 -1 0
vn 0 0 -1
vn 0 0 -1
vn 0 0 -1
vn 0 0 -1
vn 0 0 1
vn 0 0 1
vn 0 0 1
vn 0 0 1
vn 0 1 0
vn 0 1 0
vn 0 1 0
vn 0 1 0
vn 0 -1 0
vn 0 -1 0
vn 0 -1 0
vn 0 -1 0
vn 0 0 -1
vn 0 0 -1
vn 0 0 -1
vn 0 0 -1
vn 0 0 1
vn 0 0 1
vn 0 0 1
vn 0 0 1
vn 0 1 0
vn 0 1 0
vn 0 1 0
vn 0 1 0
vn 0 1 0
vn 0 1 0
vn 0 1 0
vn 0 1 0
vn 0 0 1
vn 0 0 1
vn 0 0 1
vn 0 0 1
vn 0 0 -1
vn 0 0 -1
vn 0 0 -1
vn 0 0 -1
vn 0 -1 0
vn 0 -1 0
vn 0 -1 0
vn 0 -1 0
vn 0 1 0
vn 0 1 0
vn 0 1 0
vn 0 1 0
vn -1 0 0
vn -1 0 0
vn -1 0 0
vn -1 0 0
vn 1 0 0
vn 1 0 0
vn 1 0 0
vn 1 0 0
vn 0 -1 0
vn 0 -1 0
vn 0 -1 0
vn 0 -1 0
vn 1 0 0
vn 1 0 0
vn 1 0 0
vn 1 0 0
vn 0 0 -1
vn 0 0 -1
vn 0 0 -1
vn 0 0 -1
vn 0 0 1
vn 0 0 1
vn 0 0 1
vn 0 0 1
vn -1 0 0
vn -1 0 0
vn -1 0 0
vn -1 0 0
vn -1 0 0
vn -1 0 0
vn -1 0 0
vn -1 0 0
vn 0 -1 0
vn 0 -1 0
vn 0 -1 0
vn 0 -1 0
vn 0 1 0
vn 0 1 0
vn 0 1 0
vn 0 1 0
vn 1 0 0
vn 1 0 0
vn 1 0 0
vn 1 0 0
vn -1 0 0
vn -1 0 0
vn -1 0 0
vn -1 0 0
vn 0 0 1
vn 0 0 1
vn 0 0 1
vn 0 0 1
vn 0 0 -1
vn 0 0 -1
vn 0 0 -1
vn 0 0 -1
vn 1 0 0
vn 1 0 0
vn 1 0 0
vn 1 0 0
vn -1 0 0
vn -1 0 0
vn -1 0 0
vn -1 0 0
vn 0 1 0
vn 0 1 0
vn 0 1 0
vn 0 1 0
vn 0 -1 0
vn 0 -1 0
vn 0 -1 0
vn 0 -1 0
vn 1 0 0
vn 1 0 0
vn 1 0 0
vn 1 0 0
vn 0 -1 0
vn 0 -1 0
vn 0 -1 0
vn 0 -1 0
vn 0 0 -1
vn 0 0 -1
vn 0 0 -1
vn 0 0 -1
vn 0 0 1
vn 0 0 1
vn 0 0 1
vn 0 0 1
vn 0 1 0
vn 0 1 0
vn 0 1 0
vn 0 1 0

vt 0 0
vt -1 0
vt 0 1
vt -1 1
vt 0 0
vt -1 0
vt 0 1
vt -1 1
vt 1 0
vt 0 0
vt 1 1
vt 0 1
vt 1 0
vt 0 0
vt 1 1
vt 0 1
vt 0 0
vt 1 0
vt 0 -1
vt 1 -1
vt 0 -1
vt -1 -1
vt 0 0
vt -1 0
vt 0 1
vt -1 1
vt 0 2
vt -1 2
vt 1 1
vt 0 1
vt 1 2
vt 0 2
vt 0 1
vt -1 1
vt 0 2
vt -1 2
vt 1 1
vt 0 1
vt 1 2
vt 0 2
vt -1 -1
vt 0 -1
vt -1 -2
vt 0 -2
vt -1 2
vt -1 1
vt -2 2
vt -2 1
vt 1 1
vt 1 2
vt 2 1
vt 2 2
vt 0 -1
vt 1 -1
vt 0 -2
vt 1 -2
vt -1 -2
vt 0 -2
vt -1 -3
vt 0 -3
vt -2 2
vt -2 1
vt -3 2
vt -3 1
vt 2 1
vt 2 2
vt 3 1
vt 3 2
vt 0 -2
vt 1 -2
vt 0 -3
vt 1 -3
vt -1 -3
vt 0 -3
vt -1 -4
vt 0 -4
vt -3 2
vt -3 1
vt -4 2
vt -4 1
vt 3 1
vt 3 2
vt 4 1
vt 4 2
vt 0 -3
vt 1 -3
vt 0 -4
vt 1 -4
vt 0 1
vt 0 2
vt 1 1
vt 1 2
vt 0 -3
vt 0 -2
vt 1 -3
vt 1 -2
vt 0 -2
vt 0 -3
vt -1 -2
vt -1 -3
vt 0 2
vt 0 1
vt -1 2
vt -1 1
vt 1 1
vt 1 2
vt 2 1
vt 2 2
vt 1 -3
vt 1 -2
vt 2 -3
vt 2 -2
vt -1 -2
vt -1 -3
vt -2 -2
vt -2 -3
vt -1 2
vt -1 1
vt -2 2
vt -2 1
vt 0 2
vt -1 2
vt 0 3
vt -1 3
vt 2 2
vt 1 2
vt 2 3
vt 1 3
vt -1 2
vt -2 2
vt -1 3
vt -2 3
vt 1 2
vt 0 2
vt 1 3
vt 0 3
vt 0 3
vt -1 3
vt 0 4
vt -1 4
vt 2 3
vt 1 3
vt 2 4
vt 1 4
vt -1 3
vt -2 3
vt -1 4
vt -2 4
vt 1 3
vt 0 3
vt 1 4
vt 0 4
vt -1 0
vt -1 -1
vt -2 0
vt -2 -1
vt -1 2
vt -1 1
vt -2 2
vt -2 1
vt 1 1
vt 1 2
vt 2 1
vt 2 2
vt 1 -1
vt 1 0
vt 2 -1
vt 2 0
vt -2 0
vt -2 -1
vt -3 0
vt -3 -1
vt -2 2
vt -2 1
vt -3 2
vt -3 1
vt 2 1
vt 2 2
vt 3 1
vt 3 2
vt 2 -1
vt 2 0
vt 3 -1
vt 3 0
vt -1 2
vt -1 1
vt -2 2
vt -2 1
vt 1 -4
vt 1 -3
vt 2 -4
vt 2 -3
vt -1 -3
vt -1 -4
vt -2 -3
vt -2 -4
vt 1 1
vt 1 2
vt 2 1
vt 2 2
vt -2 2
vt -2 1
vt -3 2
vt -3 1
vt 2 -4
vt 2 -3
vt 3 -4
vt 3 -3
vt -2 -3
vt -2 -4
vt -3 -3
vt -3 -4
vt 2 1
vt 2 2
vt 3 1
vt 3 2
vt 4 1
vt 4 2
vt 5 1
vt 5 2
vt -2 -4
vt -1 -4
vt -2 -5
vt -1 -5
vt 1 -4
vt 2 -4
vt 1 -5
vt 2 -5
vt -4 2
vt -4 1
vt -5 2
vt -5 1
vt 4 2
vt 3 2
vt 4 3
vt 3 3
vt 2 2
vt 1 2
vt 2 3
vt 1 3
vt -1 2
vt -2 2
vt -1 3
vt -2 3
vt -3 2
vt -4 2
vt -3 3
vt -4 3
vt -3 1
vt -2 1
vt -3 0
vt -2 0
vt -1 1
vt 0 1
vt -1 0
vt 0 0
vt 0 1
vt 1 1
vt 0 0
vt 1 0
vt 2 1
vt 3 1
vt 2 0
vt 3 0
vt -3 0
vt -2 0
vt -3 -1
vt -2 -1
vt -1 0
vt 0 0
vt -1 -1
vt 0 -1
vt 0 0
vt 1 0
vt 0 -1
vt 1 -1
vt 2 0
vt 3 0
vt 2 -1
vt 3 -1
vt 0 -3
vt 0 -2
vt 1 -3
vt 1 -2
vt 0 -1
vt 0 0
vt 1 -1
vt 1 0
vt 0 0
vt 0 -1
vt -1 0
vt -1 -1
vt 0 -2
vt 0 -3
vt -1 -2
vt -1 -3
vt 1 -3
vt 1 -2
vt 2 -3
vt 2 -2
vt 1 -1
vt 1 0
vt 2 -1
vt 2 0
vt -1 0
vt -1 -1
vt -2 0
vt -2 -1
vt -1 -2
vt -1 -3
vt -2 -2
vt -2 -3
vt 3 -1
vt 3 0
vt 4 -1
vt 4 0
vt -1 -3
vt 0 -3
vt -1 -4
vt 0 -4
vt 0 -3
vt 1 -3
vt 0 -4
vt 1 -4
vt -3 0
vt -3 -1
vt -4 0
vt -4 -1
vt 2 -1
vt 3 -1
vt 2 -2
vt 3 -2
vt -2 -1
vt -1 -1
vt -2 -2
vt -1 -2
vt 1 -1
vt 2 -1
vt 1 -2
vt 2 -2
vt -3 -1
vt -2 -1
vt -3 -2
vt -2 -2
vt 2 -2
vt 3 -2
vt 2 -3
vt 3 -3
vt -2 -2
vt -1 -2
vt -2 -3
vt -1 -3
vt 1 -2
vt 2 -2
vt 1 -3
vt 2 -3
vt -3 -2
vt -2 -2
vt -3 -3
vt -2 -3
vt 2 -3
vt 2 -2
vt 3 -3
vt 3 -2
vt 2 -3
vt 2 -2
vt 3 -3
vt 3 -2
vt -2 -2
vt -2 -3
vt -3 -2
vt -3 -3
vt -2 -2
vt -2 -3
vt -3 -2
vt -3 -3
vt 3 -3
vt 3 -2
vt 4 -3
vt 4 -2
vt 3 -3
vt 3 -2
vt 4 -3
vt 4 -2
vt -3 -2
vt -3 -3
vt -4 -2
vt -4 -3
vt -3 -2
vt -3 -3
vt -4 -2
vt -4 -3
vt 3 -3
vt 3 -2
vt 4 -3
vt 4 -2
vt -3 -3
vt -2 -3
vt -3 -4
vt -2 -4
vt 2 -3
vt 3 -3
vt 2 -4
vt 3 -4
vt -3 -2
vt -3 -3
vt -4 -2
vt -4 -3
vt 2 -3
vt 3 -3
vt 2 -4
vt 3 -4
vt -4 -3
vt -3 -3
vt -4 -4
vt -3 -4
vt 3 -3
vt 4 -3
vt 3 -4
vt 4 -4
vt -3 -3
vt -2 -3
vt -3 -4
vt -2 -4
vt 2 -2
vt 1 -2
vt 2 -1
vt 1 -1
vt -2 -2
vt -2 -1
vt -1 -2
vt -1 -1
vt 2 -1
vt 2 -2
vt 1 -1
vt 1 -2
vt -1 -2
vt -2 -2
vt -1 -1
vt -2 -1
vt 2 -1
vt 1 -1
vt 2 0
vt 1 0
vt -1 -2
vt -1 -1
vt 0 -2
vt 0 -1
vt 1 -1
vt 1 -2
vt 0 -1
vt 0 -2
vt -1 -1
vt -2 -1
vt -1 0
vt -2 0
vt 2 -2
vt 2 -3
vt 1 -2
vt 1 -3
vt 3 -2
vt 2 -2
vt 3 -1
vt 2 -1
vt -2 -2
vt -3 -2
vt -2 -1
vt -3 -1
vt -2 -3
vt -2 -2
vt -1 -3
vt -1 -2
vt 0 0
vt -1 0
vt 0 1
vt -1 1
vt 0 2
vt 0 1
vt -1 2
vt -1 1
vt 0 1
vt 0 2
vt 1 1
vt 1 2
vt 1 0
vt 0 0
vt 1 1
vt 0 1
vt 0 -1
vt 0 0
vt 1 -1
vt 1 0
vt 0 2
vt 0 1
vt -1 2
vt -1 1
vt 0 1
vt 0 2
vt 1 1
vt 1 2
vt 0 0
vt 0 -1
vt -1 0
vt -1 -1
vt 0 -2
vt 0 -1
vt 1 -2
vt 1 -1
vt 0 4
vt 0 3
vt -1 4
vt -1 3
vt 0 3
vt 0 4
vt 1 3
vt 1 4
vt 0 -1
vt 0 -2
vt -1 -1
vt -1 -2
vt -1 -2
vt -1 -3
vt -2 -2
vt -2 -3
vt 1 -1
vt 1 0
vt 2 -1
vt 2 0
vt -1 0
vt -1 -1
vt -2 0
vt -2 -1
vt 1 -3
vt 1 -2
vt 2 -3
vt 2 -2
vt 0 -2
vt -1 -2
vt 0 -1
vt -1 -1
vt -2 -1
vt -2 0
vt -1 -1
vt -1 0
vt 2 0
vt 2 -1
vt 1 0
vt 1 -1
vt 1 -2
vt 0 -2
vt 1 -1
vt 0 -1
vt 1 2
vt 0 2
vt 1 3
vt 0 3
vt 3 2
vt 2 2
vt 3 3
vt 2 3
vt -2 2
vt -3 2
vt -2 3
vt -3 3
vt 0 2
vt -1 2
vt 0 3
vt -1 3
vt -1 3
vt -1 4
vt 0 3
vt 0 4
vt 1 -1
vt 0 -1
vt 1 0
vt 0 0
vt 0 -1
vt -1 -1
vt 0 0
vt -1 0
vt 1 4
vt 1 3
vt 0 4
vt 0 3
vt -1 4
vt -2 4
vt -1 5
vt -2 5
vt 1 4
vt 0 4
vt 1 5
vt 0 5
vt 0 4
vt -1 4
vt 0 5
vt -1 5
vt 2 4
vt 1 4
vt 2 5
vt 1 5
vt -2 4
vt -2 3
vt -3 4
vt -3 3
vt -1 -2
vt 0 -2
vt -1 -3
vt 0 -3
vt 0 -2
vt 1 -2
vt 0 -3
vt 1 -3
vt 2 3
vt 2 4
vt 3 3
vt 3 4
vt 1 -2
vt 1 -1
vt 2 -2
vt 2 -1
vt -1 4
vt -1 3
vt -2 4
vt -2 3
vt 1 3
vt 1 4
vt 2 3
vt 2 4
vt -1 -1
vt -1 -2
vt -2 -1
vt -2 -2

g Cube
usemtl Default_Prototype
f 3/3/3 4/4/4 2/2/2 1/1/1
f 7/7/7 8/8/8 6/6/6 5/5/5
f 11/11/11 12/12/12 10/10/10 9/9/9
f 15/15/15 16/16/16 14/14/14 13/13/13
f 19/19/19 20/20/20 18/18/18 17/17/17
f 23/23/23 24/24/24 22/22/22 21/21/21
f 27/27/27 28/28/28 26/26/26 25/25/25
f 31/31/31 32/32/32 30/30/30 29/29/29
f 35/35/35 36/36/36 34/34/34 33/33/33
f 39/39/39 40/40/40 38/38/38 37/37/37
f 43/43/43 44/44/44 42/42/42 41/41/41
f 47/47/47 48/48/48 46/46/46 45/45/45
f 51/51/51 52/52/52 50/50/50 49/49/49
f 55/55/55 56/56/56 54/54/54 53/53/53
f 59/59/59 60/60/60 58/58/58 57/57/57
f 63/63/63 64/64/64 62/62/62 61/61/61
f 67/67/67 68/68/68 66/66/66 65/65/65
f 71/71/71 72/72/72 70/70/70 69/69/69
f 75/75/75 76/76/76 74/74/74 73/73/73
f 79/79/79 80/80/80 78/78/78 77/77/77
f 83/83/83 84/84/84 82/82/82 81/81/81
f 87/87/87 88/88/88 86/86/86 85/85/85
f 91/91/91 92/92/92 90/90/90 89/89/89
f 95/95/95 96/96/96 94/94/94 93/93/93
f 99/99/99 100/100/100 98/98/98 97/97/97
f 103/103/103 104/104/104 102/102/102 101/101/101
f 107/107/107 108/108/108 106/106/106 105/105/105
f 111/111/111 112/112/112 110/110/110 109/109/109
f 115/115/115 116/116/116 114/114/114 113/113/113
f 119/119/119 120/120/120 118/118/118 117/117/117
f 123/123/123 124/124/124 122/122/122 121/121/121
f 127/127/127 128/128/128 126/126/126 125/125/125
f 131/131/131 132/132/132 130/130/130 129/129/129
f 135/135/135 136/136/136 134/134/134 133/133/133
f 139/139/139 140/140/140 138/138/138 137/137/137
f 143/143/143 144/144/144 142/142/142 141/141/141
f 147/147/147 148/148/148 146/146/146 145/145/145
f 151/151/151 152/152/152 150/150/150 149/149/149
f 155/155/155 156/156/156 154/154/154 153/153/153
f 159/159/159 160/160/160 158/158/158 157/157/157
f 163/163/163 164/164/164 162/162/162 161/161/161
f 167/167/167 168/168/168 166/166/166 165/165/165
f 171/171/171 172/172/172 170/170/170 169/169/169
f 175/175/175 176/176/176 174/174/174 173/173/173
f 179/179/179 180/180/180 178/178/178 177/177/177
f 183/183/183 184/184/184 182/182/182 181/181/181
f 187/187/187 188/188/188 186/186/186 185/185/185
f 191/191/191 192/192/192 190/190/190 189/189/189
f 195/195/195 196/196/196 194/194/194 193/193/193
f 199/199/199 200/200/200 198/198/198 197/197/197
f 203/203/203 204/204/204 202/202/202 201/201/201
f 207/207/207 208/208/208 206/206/206 205/205/205
f 211/211/211 212/212/212 210/210/210 209/209/209
f 215/215/215 216/216/216 214/214/214 213/213/213
f 219/219/219 220/220/220 218/218/218 217/217/217
f 223/223/223 224/224/224 222/222/222 221/221/221
f 227/227/227 228/228/228 226/226/226 225/225/225
f 231/231/231 232/232/232 230/230/230 229/229/229
f 235/235/235 236/236/236 234/234/234 233/233/233
f 239/239/239 240/240/240 238/238/238 237/237/237
f 243/243/243 244/244/244 242/242/242 241/241/241
f 247/247/247 248/248/248 246/246/246 245/245/245
f 251/251/251 252/252/252 250/250/250 249/249/249
f 255/255/255 256/256/256 254/254/254 253/253/253
f 259/259/259 260/260/260 258/258/258 257/257/257
f 263/263/263 264/264/264 262/262/262 261/261/261
f 267/267/267 268/268/268 266/266/266 265/265/265
f 271/271/271 272/272/272 270/270/270 269/269/269
f 275/275/275 276/276/276 274/274/274 273/273/273
f 279/279/279 280/280/280 278/278/278 277/277/277
f 283/283/283 284/284/284 282/282/282 281/281/281
f 287/287/287 288/288/288 286/286/286 285/285/285
f 291/291/291 292/292/292 290/290/290 289/289/289
f 295/295/295 296/296/296 294/294/294 293/293/293
f 299/299/299 300/300/300 298/298/298 297/297/297
f 303/303/303 304/304/304 302/302/302 301/301/301
f 307/307/307 308/308/308 306/306/306 305/305/305
f 311/311/311 312/312/312 310/310/310 309/309/309
f 315/315/315 316/316/316 314/314/314 313/313/313
f 319/319/319 320/320/320 318/318/318 317/317/317
f 323/323/323 324/324/324 322/322/322 321/321/321
f 327/327/327 328/328/328 326/326/326 325/325/325
f 331/331/331 332/332/332 330/330/330 329/329/329
f 335/335/335 336/336/336 334/334/334 333/333/333
f 339/339/339 340/340/340 338/338/338 337/337/337
f 343/343/343 344/344/344 342/342/342 341/341/341
f 347/347/347 348/348/348 346/346/346 345/345/345
f 351/351/351 352/352/352 350/350/350 349/349/349
f 355/355/355 356/356/356 354/354/354 353/353/353
f 359/359/359 360/360/360 358/358/358 357/357/357
f 363/363/363 364/364/364 362/362/362 361/361/361
f 367/367/367 368/368/368 366/366/366 365/365/365
f 371/371/371 372/372/372 370/370/370 369/369/369
f 375/375/375 376/376/376 374/374/374 373/373/373
f 379/379/379 380/380/380 378/378/378 377/377/377
f 383/383/383 384/384/384 382/382/382 381/381/381
f 387/387/387 388/388/388 386/386/386 385/385/385
f 391/391/391 392/392/392 390/390/390 389/389/389
f 395/395/395 396/396/396 394/394/394 393/393/393
f 399/399/399 400/400/400 398/398/398 397/397/397
f 403/403/403 404/404/404 402/402/402 401/401/401
f 407/407/407 408/408/408 406/406/406 405/405/405
f 411/411/411 412/412/412 410/410/410 409/409/409
f 415/415/415 416/416/416 414/414/414 413/413/413
f 419/419/419 420/420/420 418/418/418 417/417/417
f 423/423/423 424/424/424 422/422/422 421/421/421
f 427/427/427 428/428/428 426/426/426 425/425/425
f 431/431/431 432/432/432 430/430/430 429/429/429
f 435/435/435 436/436/436 434/434/434 433/433/433
f 439/439/439 440/440/440 438/438/438 437/437/437
f 443/443/443 444/444/444 442/442/442 441/441/441
f 447/447/447 448/448/448 446/446/446 445/445/445
f 451/451/451 452/452/452 450/450/450 449/449/449
f 455/455/455 456/456/456 454/454/454 453/453/453
f 459/459/459 460/460/460 458/458/458 457/457/457
f 463/463/463 464/464/464 462/462/462 461/461/461
f 467/467/467 468/468/468 466/466/466 465/465/465
f 471/471/471 472/472/472 470/470/470 469/469/469
f 475/475/475 476/476/476 474/474/474 473/473/473
f 479/479/479 480/480/480 478/478/478 477/477/477
f 483/483/483 484/484/484 482/482/482 481/481/481
f 487/487/487 488/488/488 486/486/486 485/485/485
f 491/491/491 492/492/492 490/490/490 489/489/489
f 495/495/495 496/496/496 494/494/494 493/493/493
f 499/499/499 500/500/500 498/498/498 497/497/497
f 503/503/503 504/504/504 502/502/502 501/501/501
f 507/507/507 508/508/508 506/506/506 505/505/505
f 511/511/511 512/512/512 510/510/510 509/509/509
f 515/515/515 516/516/516 514/514/514 513/513/513
f 519/519/519 520/520/520 518/518/518 517/517/517
f 523/523/523 524/524/524 522/522/522 521/521/521
f 527/527/527 528/528/528 526/526/526 525/525/525
f 531/531/531 532/532/532 530/530/530 529/529/529
f 535/535/535 536/536/536 534/534/534 533/533/533
f 539/539/539 540/540/540 538/538/538 537/537/537
f 543/543/543 544/544/544 542/542/542 541/541/541
f 547/547/547 548/548/548 546/546/546 545/545/545
f 551/551/551 552/552/552 550/550/550 549/549/549
f 555/555/555 556/556/556 554/554/554 553/553/553
f 559/559/559 560/560/560 558/558/558 557/557/557
f 563/563/563 564/564/564 562/562/562 561/561/561
f 567/567/567 568/568/568 566/566/566 565/565/565
f 571/571/571 572/572/572 570/570/570 569/569/569
f 575/575/575 576/576/576 574/574/574 573/573/573
f 579/579/579 580/580/580 578/578/578 577/577/577
f 583/583/583 584/584/584 582/582/582 581/581/581
f 587/587/587 588/588/588 586/586/586 585/585/585
f 591/591/591 592/592/592 590/590/590 589/589/589
f 595/595/595 596/596/596 594/594/594 593/593/593
f 599/599/599 600/600/600 598/598/598 597/597/597
f 603/603/603 604/604/604 602/602/602 601/601/601
f 607/607/607 608/608/608 606/606/606 605/605/605
f 611/611/611 612/612/612 610/610/610 609/609/609
f 615/615/615 616/616/616 614/614/614 613/613/613
f 619/619/619 620/620/620 618/618/618 617/617/617
f 623/623/623 624/624/624 622/622/622 621/621/621
f 627/627/627 628/628/628 626/626/626 625/625/625
f 631/631/631 632/632/632 630/630/630 629/629/629

